<svg width="214" height="451" viewBox="0 0 214 451" fill="none" xmlns="http://www.w3.org/2000/svg">
<path d="M103.963 445.026C103.722 445.819 104.17 446.657 104.963 446.897L117.882 450.815C118.675 451.055 119.512 450.607 119.753 449.814C119.993 449.022 119.545 448.184 118.753 447.944L107.269 444.461L110.751 432.978C110.992 432.185 110.544 431.347 109.751 431.107C108.959 430.867 108.121 431.314 107.881 432.107L103.963 445.026ZM104.787 0.0820076C59.7956 20.1801 31.5652 39.2276 16.0597 57.642C8.29135 66.8677 3.68803 75.9686 1.80152 84.988C-0.0865162 94.0147 0.765936 102.869 3.77226 111.563C9.76214 128.885 24.3169 145.609 42.8625 162.077C61.4329 178.566 84.2073 194.968 106.837 211.573C129.502 228.205 152.033 245.049 170.263 262.494C188.509 279.954 202.294 297.875 207.654 316.614C212.982 335.241 210.04 354.863 194.42 375.956C178.745 397.122 150.311 419.749 104.691 444.139L106.106 446.784C151.886 422.309 180.771 399.428 196.831 377.742C212.944 355.983 216.15 335.408 210.538 315.789C204.958 296.283 190.713 277.911 172.337 260.326C153.945 242.726 131.26 225.774 108.612 209.155C85.9294 192.51 63.2944 176.207 44.8544 159.833C26.3898 143.438 12.3335 127.141 6.60754 110.583C3.75594 102.336 2.97429 94.0343 4.73798 85.6022C6.5032 77.1626 10.8374 68.5016 18.3545 59.5743C33.4198 41.6827 61.1515 22.8601 106.01 2.82113L104.787 0.0820076Z" fill="white"/>
</svg>
